<svg version="1.0" xmlns="http://www.w3.org/2000/svg" width="1080.000000ptpx" height="1080.000000ptpx" viewBox="0 0 1080.000000 1080.000000" preserveAspectRatio="xMidYMid meet" transform="rotate(0) scale(1, 1)">

<g transform="translate(0.000000,1080.000000) scale(0.100000,-0.100000)" fill="#156437" stroke="none">
<path d="M7147 9465 c-288 -35 -520 -120 -748 -273 -131 -88 -307 -260 -401&#10;-392 -136 -190 -242 -439 -284 -665 -28 -150 -26 -457 5 -620 77 -416 230&#10;-795 454 -1126 45 -67 89 -133 98 -146 9 -13 57 -70 106 -126 148 -168 167&#10;-211 129 -284 -8 -17 -77 -89 -153 -159 -76 -71 -177 -167 -224 -214 -399&#10;-396 -683 -991 -750 -1570 -19 -164 -7 -455 25 -607 141 -671 604 -1212 1236&#10;-1446 195 -72 372 -106 600 -114 334 -11 618 47 909 187 279 135 529 339 713&#10;580 136 180 256 418 317 632 29 104 35 128 52 228 105 620 -128 1385 -596&#10;1955 -136 166 -329 341 -483 440 -76 49 -100 90 -83 144 14 47 34 74 174 233&#10;156 176 276 358 392 593 101 205 147 320 200 505 75 262 100 445 92 688 -8&#10;261 -52 436 -167 667 -80 159 -171 286 -305 420 -273 274 -588 423 -990 470&#10;-150 17 -172 17 -318 0z"/>
<path d="M3265 9269 c-218 -23 -409 -79 -610 -179 -186 -93 -303 -178 -461&#10;-335 -372 -370 -601 -890 -644 -1464 -39 -510 116 -975 425 -1270 201 -191&#10;422 -304 724 -369 118 -25 142 -27 376 -27 218 0 266 3 380 24 502 90 955 321&#10;1265 647 225 236 385 546 452 875 20 100 23 143 23 344 0 203 -3 243 -24 340&#10;-75 355 -232 647 -481 896 -69 69 -138 135 -155 147 -16 13 -54 40 -83 62 -59&#10;44 -200 125 -277 160 -283 126 -610 180 -910 149z"/>
<path d="M5524 6356 c-105 -49 -199 -177 -240 -327 -24 -87 -24 -271 -1 -358&#10;41 -152 132 -276 239 -326 144 -67 349 -3 513 160 197 196 216 420 51 633&#10;-147 192 -404 292 -562 218z"/>
<path d="M3541 5274 c-484 -68 -1011 -338 -1389 -712 -279 -276 -453 -590&#10;-534 -964 -18 -87 -22 -135 -22 -313 -1 -181 2 -226 22 -322 59 -293 188 -543&#10;385 -750 252 -263 581 -417 947 -442 649 -45 1269 308 1607 914 326 585 419&#10;1317 238 1862 -132 394 -395 637 -780 718 -112 23 -343 28 -474 9z"/>
</g>
</svg>